<?xml version="1.0" encoding="iso-8859-1"?>
<!-- Generator: Adobe Illustrator 19.0.0, SVG Export Plug-In . SVG Version: 6.00 Build 0)  -->
<svg version="1.1" id="Capa_1" xmlns="http://www.w3.org/2000/svg" xmlns:xlink="http://www.w3.org/1999/xlink" x="0px" y="0px"
	 viewBox="0 0 471.381 471.381" style="enable-background:new 0 0 471.381 471.381;" xml:space="preserve">
<g>
	<g>
		<circle cx="226.117" cy="68.267" r="68.267"/>
	</g>
</g>
<g>
	<g>
		<path d="M397.138,200.67c-0.387-0.128-0.778-0.242-1.173-0.341l-50.381-12.595l-63.71-47.787
			c-2.954-2.216-6.547-3.413-10.24-3.413h-89.651c-4.526,0.001-8.866,1.8-12.066,5l-102.4,102.4c-6.663,6.665-6.663,17.468,0,24.132
			l11.264,11.264c6.149,6.152,15.941,6.696,22.733,1.263l73.404-58.726v68.267l-17.067,85.333l-41.301,41.301
			c-5.755,5.753-6.648,14.768-2.133,21.538l16.043,24.064c5.222,7.847,15.817,9.975,23.663,4.753
			c0.414-0.275,0.815-0.568,1.203-0.879l66.287-53.043c2.921-2.332,4.995-5.557,5.905-9.182l15.667-62.686l34.133,51.2
			l27.307,68.113c3.5,8.752,13.432,13.01,22.183,9.51c0.441-0.176,0.875-0.371,1.3-0.584l37.291-18.637
			c8.089-4.041,11.622-13.69,8.055-21.999l-44.937-104.67l-34.133-51.2l-2.731-51.2l36.864,17.067l52.907,13.227
			c8.651,2.161,17.507-2.703,20.326-11.162l6.246-18.773C410.951,213.274,406.089,203.624,397.138,200.67z"/>
	</g>
</g>
</svg>
